# xmcd
# 
# Track frame offsets:
#     183
#     12818
#     29200
#     58708
#     68463
#     80455
#     97488
#     124668
#     136670
#     150595
# 
# Disc length: 2188
# 
# Revision: 10
# Processed by: cddbd v1.5.2PL0 Copyright (c) Steve Scherf et al.
# Submitted via: fre:ac v1.0.31
# 
DISCID=7f088a0a
DTITLE=Taste - On the Boards
DYEAR=1970
DGENRE=Blues Rock
TTITLE0=What's Going On
TTITLE1=Railway and Gun
TTITLE2=It's Happened Before, It'll Happen Again
TTITLE3=If the Day Was Any Longer
TTITLE4=Morning Sun
TTITLE5=Eat My Words
TTITLE6=On the Boards
TTITLE7=If I Don't Sing I'll Cry
TTITLE8=See Here
TTITLE9=I'll Remember
EXTD=YEAR: 1970
EXTT0=
EXTT1=
EXTT2=
EXTT3=
EXTT4=
EXTT5=
EXTT6=
EXTT7=
EXTT8=
EXTT9=
PLAYORDER=
